<svg width="152" height="152" viewBox="0 0 152 152" fill="none" xmlns="http://www.w3.org/2000/svg">
<path d="M82.9876 57.6925L98.9497 4.23441C82.8308 0.341078 73.5538 -0.477948 55.9214 4.23441C38.6817 9.5758 30.1312 14.4146 17.7511 27.8393C6.99761 42.6062 3.85157 51.7197 1.09504 68.8006C0.388282 91.2023 3.57745 100.556 12.1991 114.622C23.7953 133.552 32.3952 138.512 48.2873 145.864C69.0035 152.483 79.8944 151.892 98.9497 148.641C118.657 140.212 126.896 133.819 137.814 120.176C147.439 104.112 150.774 94.7624 151 77.1318H96.1736L82.9876 120.176H62.8614L76.7415 75.7433H28.1612L32.3252 57.6925H82.9876Z" fill="white"/>
<path d="M116.994 13.2598L103.114 57.6925H148.918C142.057 36.889 134.777 27.3393 116.994 13.2598Z" fill="white"/>
<path d="M82.9876 57.6925L98.9497 4.23441C82.8308 0.341078 73.5538 -0.477948 55.9214 4.23441C38.6817 9.5758 30.1312 14.4146 17.7511 27.8393C6.99761 42.6062 3.85157 51.7197 1.09504 68.8006C0.388282 91.2023 3.57745 100.556 12.1991 114.622C23.7953 133.552 32.3952 138.512 48.2873 145.864C69.0035 152.483 79.8944 151.892 98.9497 148.641C118.657 140.212 126.896 133.819 137.814 120.176C147.439 104.112 150.774 94.7624 151 77.1318H96.1736L82.9876 120.176H62.8614L76.7415 75.7433H28.1612L32.3252 57.6925H82.9876Z" stroke="white"/>
<path d="M116.994 13.2598L103.114 57.6925H148.918C142.057 36.889 134.777 27.3393 116.994 13.2598Z" stroke="white"/>
</svg>
